# xmcd
#
# Track frame offsets:
#	150
#	14922
#	29245
#
# Disc length: 659 seconds
#
# Revision: 1
# Processed by: cddbd v1.5.1PL0 Copyright (c) Steve Scherf et al.
# Submitted via: CDex 1.50Beta5
#
DISCID=28029103
DTITLE=Goofy's　holiday - One　Day
DYEAR=1900
DGENRE=Rock
TTITLE0=Too　Regret
TTITLE1=Grudgeman
TTITLE2=One　Way
EXTD=
EXTT0=
EXTT1=
EXTT2=
PLAYORDER=
